<mxfile host="drawio-plugin" modified="2023-04-14T14:24:19.568Z" agent="5.0 (X11; Linux x86_64) AppleWebKit/537.36 (KHTML, like Gecko) Chrome/104.0.5112.102 Safari/537.36" etag="Zb9oexhmKxQXwYzSQ46_" version="20.5.3" type="embed"><diagram id="bvb-jbqjrMuuALgzDfic" name="Page-1"><mxGraphModel dx="1631" dy="1013" grid="1" gridSize="10" guides="1" tooltips="1" connect="1" arrows="1" fold="1" page="0" pageScale="1" pageWidth="850" pageHeight="1100" math="0" shadow="0"><root><mxCell id="0"/><mxCell id="1" parent="0"/><mxCell id="tXU4QVJW2cZJAh9cHZi9-1" value="Automation Composition Runtime" style="shape=umlFrame;whiteSpace=wrap;html=1;width=140;height=30;fillColor=none;" parent="1" vertex="1"><mxGeometry x="370" y="70" width="340" height="310" as="geometry"/></mxCell><mxCell id="tXU4QVJW2cZJAh9cHZi9-2" value="Automation Composition Definition" style="shape=umlFrame;whiteSpace=wrap;html=1;width=140;height=30;fillColor=none;" parent="1" vertex="1"><mxGeometry x="50" y="70" width="280" height="310" as="geometry"/></mxCell><mxCell id="tXU4QVJW2cZJAh9cHZi9-3" value="Automation Composition Concepts" style="shape=umlFrame;whiteSpace=wrap;html=1;rounded=0;shadow=0;comic=0;labelBackgroundColor=none;strokeWidth=1;fontFamily=Verdana;fontSize=10;align=center;width=140;height=30;fillColor=none;" parent="1" vertex="1"><mxGeometry x="40" y="25" width="680" height="365" as="geometry"/></mxCell><mxCell id="tXU4QVJW2cZJAh9cHZi9-4" value="" style="endArrow=open;html=1;endSize=12;startArrow=diamondThin;startSize=14;startFill=0;edgeStyle=orthogonalEdgeStyle;exitX=0.5;exitY=1;exitDx=0;exitDy=0;" parent="1" source="tXU4QVJW2cZJAh9cHZi9-30" target="tXU4QVJW2cZJAh9cHZi9-29" edge="1"><mxGeometry relative="1" as="geometry"><mxPoint x="377.5" y="492" as="sourcePoint"/><mxPoint x="378" y="544" as="targetPoint"/></mxGeometry></mxCell><mxCell id="tXU4QVJW2cZJAh9cHZi9-5" value="1" style="resizable=0;html=1;align=left;verticalAlign=top;labelBackgroundColor=#ffffff;fontSize=10;" parent="tXU4QVJW2cZJAh9cHZi9-4" connectable="0" vertex="1"><mxGeometry x="-1" relative="1" as="geometry"><mxPoint x="5" as="offset"/></mxGeometry></mxCell><mxCell id="tXU4QVJW2cZJAh9cHZi9-6" value="1..n" style="resizable=0;html=1;align=right;verticalAlign=top;labelBackgroundColor=#ffffff;fontSize=10;" parent="tXU4QVJW2cZJAh9cHZi9-4" connectable="0" vertex="1"><mxGeometry x="1" relative="1" as="geometry"><mxPoint x="25" y="-20" as="offset"/></mxGeometry></mxCell><mxCell id="tXU4QVJW2cZJAh9cHZi9-7" value="Executes" style="endArrow=none;html=1;edgeStyle=orthogonalEdgeStyle;entryX=0.75;entryY=1;entryDx=0;entryDy=0;exitX=0;exitY=0.5;exitDx=0;exitDy=0;" parent="1" source="tXU4QVJW2cZJAh9cHZi9-29" target="tXU4QVJW2cZJAh9cHZi9-34" edge="1"><mxGeometry x="0.1411" y="-13" relative="1" as="geometry"><mxPoint x="509" y="353" as="sourcePoint"/><mxPoint x="559" y="644" as="targetPoint"/><Array as="points"/><mxPoint as="offset"/></mxGeometry></mxCell><mxCell id="tXU4QVJW2cZJAh9cHZi9-8" value="1..n" style="resizable=0;html=1;align=left;verticalAlign=bottom;labelBackgroundColor=#ffffff;fontSize=10;" parent="tXU4QVJW2cZJAh9cHZi9-7" connectable="0" vertex="1"><mxGeometry x="-1" relative="1" as="geometry"><mxPoint x="-30" y="17" as="offset"/></mxGeometry></mxCell><mxCell id="tXU4QVJW2cZJAh9cHZi9-9" value="" style="resizable=0;html=1;align=right;verticalAlign=bottom;labelBackgroundColor=#ffffff;fontSize=10;" parent="tXU4QVJW2cZJAh9cHZi9-7" connectable="0" vertex="1"><mxGeometry x="1" relative="1" as="geometry"><mxPoint x="-10" as="offset"/></mxGeometry></mxCell><mxCell id="tXU4QVJW2cZJAh9cHZi9-10" value="Manages Lifecycle Of" style="endArrow=none;html=1;edgeStyle=orthogonalEdgeStyle;entryX=0.5;entryY=1;entryDx=0;entryDy=0;exitX=0.5;exitY=0;exitDx=0;exitDy=0;" parent="1" source="tXU4QVJW2cZJAh9cHZi9-30" target="tXU4QVJW2cZJAh9cHZi9-28" edge="1"><mxGeometry x="0.3636" relative="1" as="geometry"><mxPoint x="603" y="523" as="sourcePoint"/><mxPoint x="563" y="312" as="targetPoint"/><mxPoint as="offset"/></mxGeometry></mxCell><mxCell id="tXU4QVJW2cZJAh9cHZi9-11" value="1..n" style="resizable=0;html=1;align=left;verticalAlign=bottom;labelBackgroundColor=#ffffff;fontSize=10;" parent="tXU4QVJW2cZJAh9cHZi9-10" connectable="0" vertex="1"><mxGeometry x="-1" relative="1" as="geometry"/></mxCell><mxCell id="tXU4QVJW2cZJAh9cHZi9-12" value="1" style="resizable=0;html=1;align=right;verticalAlign=bottom;labelBackgroundColor=#ffffff;fontSize=10;" parent="tXU4QVJW2cZJAh9cHZi9-10" connectable="0" vertex="1"><mxGeometry x="1" relative="1" as="geometry"><mxPoint y="12.5" as="offset"/></mxGeometry></mxCell><mxCell id="tXU4QVJW2cZJAh9cHZi9-13" value="Defines" style="endArrow=none;html=1;edgeStyle=orthogonalEdgeStyle;entryX=1;entryY=0.5;entryDx=0;entryDy=0;exitX=0;exitY=0.25;exitDx=0;exitDy=0;" parent="1" source="tXU4QVJW2cZJAh9cHZi9-30" target="tXU4QVJW2cZJAh9cHZi9-32" edge="1"><mxGeometry x="0.8243" y="9" relative="1" as="geometry"><mxPoint x="620" y="523" as="sourcePoint"/><mxPoint x="760" y="478" as="targetPoint"/><mxPoint as="offset"/><Array as="points"><mxPoint x="420" y="188"/><mxPoint x="420" y="114"/></Array></mxGeometry></mxCell><mxCell id="tXU4QVJW2cZJAh9cHZi9-14" value="1..n" style="resizable=0;html=1;align=left;verticalAlign=bottom;labelBackgroundColor=#ffffff;fontSize=10;" parent="tXU4QVJW2cZJAh9cHZi9-13" connectable="0" vertex="1"><mxGeometry x="-1" relative="1" as="geometry"><mxPoint x="-30" y="-2.5" as="offset"/></mxGeometry></mxCell><mxCell id="tXU4QVJW2cZJAh9cHZi9-15" value="" style="resizable=0;html=1;align=right;verticalAlign=bottom;labelBackgroundColor=#ffffff;fontSize=10;" parent="tXU4QVJW2cZJAh9cHZi9-13" connectable="0" vertex="1"><mxGeometry x="1" relative="1" as="geometry"><mxPoint x="-10" as="offset"/></mxGeometry></mxCell><mxCell id="tXU4QVJW2cZJAh9cHZi9-16" value="Defines" style="endArrow=none;html=1;edgeStyle=orthogonalEdgeStyle;entryX=0.75;entryY=1;entryDx=0;entryDy=0;exitX=0.25;exitY=0;exitDx=0;exitDy=0;" parent="1" source="tXU4QVJW2cZJAh9cHZi9-29" target="tXU4QVJW2cZJAh9cHZi9-33" edge="1"><mxGeometry x="0.8205" relative="1" as="geometry"><mxPoint x="580" y="650" as="sourcePoint"/><mxPoint x="310" y="348" as="targetPoint"/><Array as="points"><mxPoint x="548" y="250"/><mxPoint x="243" y="250"/></Array><mxPoint as="offset"/></mxGeometry></mxCell><mxCell id="tXU4QVJW2cZJAh9cHZi9-17" value="1..n" style="resizable=0;html=1;align=left;verticalAlign=bottom;labelBackgroundColor=#ffffff;fontSize=10;" parent="tXU4QVJW2cZJAh9cHZi9-16" connectable="0" vertex="1"><mxGeometry x="-1" relative="1" as="geometry"><mxPoint x="-34" y="-2" as="offset"/></mxGeometry></mxCell><mxCell id="tXU4QVJW2cZJAh9cHZi9-18" value="" style="resizable=0;html=1;align=right;verticalAlign=bottom;labelBackgroundColor=#ffffff;fontSize=10;" parent="tXU4QVJW2cZJAh9cHZi9-16" connectable="0" vertex="1"><mxGeometry x="1" relative="1" as="geometry"><mxPoint x="-10" as="offset"/></mxGeometry></mxCell><mxCell id="tXU4QVJW2cZJAh9cHZi9-19" value="Defines" style="endArrow=none;html=1;edgeStyle=orthogonalEdgeStyle;entryX=0.5;entryY=1;entryDx=0;entryDy=0;exitX=0;exitY=0.5;exitDx=0;exitDy=0;" parent="1" source="tXU4QVJW2cZJAh9cHZi9-34" target="tXU4QVJW2cZJAh9cHZi9-31" edge="1"><mxGeometry x="0.119" y="-10" relative="1" as="geometry"><mxPoint x="490" y="426.5" as="sourcePoint"/><mxPoint x="410" y="350" as="targetPoint"/><mxPoint as="offset"/></mxGeometry></mxCell><mxCell id="tXU4QVJW2cZJAh9cHZi9-20" value="1..n" style="resizable=0;html=1;align=left;verticalAlign=bottom;labelBackgroundColor=#ffffff;fontSize=10;" parent="tXU4QVJW2cZJAh9cHZi9-19" connectable="0" vertex="1"><mxGeometry x="-1" relative="1" as="geometry"><mxPoint x="-30" y="-2.5" as="offset"/></mxGeometry></mxCell><mxCell id="tXU4QVJW2cZJAh9cHZi9-21" value="" style="resizable=0;html=1;align=right;verticalAlign=bottom;labelBackgroundColor=#ffffff;fontSize=10;" parent="tXU4QVJW2cZJAh9cHZi9-19" connectable="0" vertex="1"><mxGeometry x="1" relative="1" as="geometry"><mxPoint x="-10" as="offset"/></mxGeometry></mxCell><mxCell id="tXU4QVJW2cZJAh9cHZi9-22" value="Supports" style="endArrow=none;html=1;edgeStyle=orthogonalEdgeStyle;entryX=1;entryY=0.25;entryDx=0;entryDy=0;exitX=0.25;exitY=1;exitDx=0;exitDy=0;" parent="1" source="tXU4QVJW2cZJAh9cHZi9-33" target="tXU4QVJW2cZJAh9cHZi9-31" edge="1"><mxGeometry x="-0.3798" y="3" relative="1" as="geometry"><mxPoint x="191" y="233" as="sourcePoint"/><mxPoint x="153" y="663" as="targetPoint"/><mxPoint as="offset"/></mxGeometry></mxCell><mxCell id="tXU4QVJW2cZJAh9cHZi9-23" value="1..n" style="resizable=0;html=1;align=left;verticalAlign=bottom;labelBackgroundColor=#ffffff;fontSize=10;" parent="tXU4QVJW2cZJAh9cHZi9-22" connectable="0" vertex="1"><mxGeometry x="-1" relative="1" as="geometry"><mxPoint x="-28" y="20" as="offset"/></mxGeometry></mxCell><mxCell id="tXU4QVJW2cZJAh9cHZi9-24" value="" style="resizable=0;html=1;align=right;verticalAlign=bottom;labelBackgroundColor=#ffffff;fontSize=10;" parent="tXU4QVJW2cZJAh9cHZi9-22" connectable="0" vertex="1"><mxGeometry x="1" relative="1" as="geometry"><mxPoint x="-10" as="offset"/></mxGeometry></mxCell><mxCell id="tXU4QVJW2cZJAh9cHZi9-25" value="" style="endArrow=open;html=1;endSize=12;startArrow=diamondThin;startSize=14;startFill=0;edgeStyle=orthogonalEdgeStyle;exitX=0.5;exitY=1;exitDx=0;exitDy=0;entryX=0.5;entryY=0;entryDx=0;entryDy=0;" parent="1" source="tXU4QVJW2cZJAh9cHZi9-32" target="tXU4QVJW2cZJAh9cHZi9-33" edge="1"><mxGeometry relative="1" as="geometry"><mxPoint x="648" y="403" as="sourcePoint"/><mxPoint x="328" y="263" as="targetPoint"/></mxGeometry></mxCell><mxCell id="tXU4QVJW2cZJAh9cHZi9-26" value="1" style="resizable=0;html=1;align=left;verticalAlign=top;labelBackgroundColor=#ffffff;fontSize=10;" parent="tXU4QVJW2cZJAh9cHZi9-25" connectable="0" vertex="1"><mxGeometry x="-1" relative="1" as="geometry"><mxPoint x="5" as="offset"/></mxGeometry></mxCell><mxCell id="tXU4QVJW2cZJAh9cHZi9-27" value="1..n" style="resizable=0;html=1;align=right;verticalAlign=top;labelBackgroundColor=#ffffff;fontSize=10;" parent="tXU4QVJW2cZJAh9cHZi9-25" connectable="0" vertex="1"><mxGeometry x="1" relative="1" as="geometry"><mxPoint x="25" y="-20" as="offset"/></mxGeometry></mxCell><mxCell id="tXU4QVJW2cZJAh9cHZi9-28" value="Automation Composition Runtime" style="swimlane;html=1;fontStyle=0;childLayout=stackLayout;horizontal=1;startSize=110;fillColor=none;horizontalStack=0;resizeParent=1;resizeLast=0;collapsible=1;marginBottom=0;swimlaneFillColor=#ffffff;rounded=0;shadow=0;comic=0;labelBackgroundColor=none;strokeWidth=1;fontFamily=Verdana;fontSize=10;align=center;" parent="1" vertex="1"><mxGeometry x="480" y="108" width="198" height="28" as="geometry"/></mxCell><mxCell id="tXU4QVJW2cZJAh9cHZi9-29" value="Automation Composition Element" style="swimlane;html=1;fontStyle=0;childLayout=stackLayout;horizontal=1;startSize=28;fillColor=none;horizontalStack=0;resizeParent=1;resizeLast=0;collapsible=1;marginBottom=0;swimlaneFillColor=#ffffff;rounded=0;shadow=0;comic=0;labelBackgroundColor=none;strokeWidth=1;fontFamily=Verdana;fontSize=10;align=center;" parent="1" vertex="1" collapsed="1"><mxGeometry x="520" y="339" width="177" height="28" as="geometry"><mxRectangle x="430" y="350" width="130" height="28" as="alternateBounds"/></mxGeometry></mxCell><mxCell id="tXU4QVJW2cZJAh9cHZi9-30" value="Automation Composition Instance" style="swimlane;html=1;fontStyle=0;childLayout=stackLayout;horizontal=1;startSize=110;fillColor=none;horizontalStack=0;resizeParent=1;resizeLast=0;collapsible=1;marginBottom=0;swimlaneFillColor=#ffffff;rounded=0;shadow=0;comic=0;labelBackgroundColor=none;strokeWidth=1;fontFamily=Verdana;fontSize=10;align=center;" parent="1" vertex="1"><mxGeometry x="480" y="200" width="200" height="30" as="geometry"/></mxCell><mxCell id="tXU4QVJW2cZJAh9cHZi9-31" value="Participant Type" style="swimlane;html=1;fontStyle=0;childLayout=stackLayout;horizontal=1;startSize=110;fillColor=none;horizontalStack=0;resizeParent=1;resizeLast=0;collapsible=1;marginBottom=0;swimlaneFillColor=#ffffff;rounded=0;shadow=0;comic=0;labelBackgroundColor=none;strokeWidth=1;fontFamily=Verdana;fontSize=10;align=center;" parent="1" vertex="1"><mxGeometry x="63" y="253" width="90" height="28" as="geometry"/></mxCell><mxCell id="tXU4QVJW2cZJAh9cHZi9-32" value="AUtomation Composition Type" style="swimlane;html=1;fontStyle=0;childLayout=stackLayout;horizontal=1;startSize=110;fillColor=none;horizontalStack=0;resizeParent=1;resizeLast=0;collapsible=1;marginBottom=0;swimlaneFillColor=#ffffff;rounded=0;shadow=0;comic=0;labelBackgroundColor=none;strokeWidth=1;fontFamily=Verdana;fontSize=10;align=center;" parent="1" vertex="1"><mxGeometry x="100" y="108" width="173" height="28" as="geometry"/></mxCell><mxCell id="tXU4QVJW2cZJAh9cHZi9-33" value="Automation Composition Element Type" style="swimlane;html=1;fontStyle=0;childLayout=stackLayout;horizontal=1;startSize=110;fillColor=none;horizontalStack=0;resizeParent=1;resizeLast=0;collapsible=1;marginBottom=0;swimlaneFillColor=#ffffff;rounded=0;shadow=0;comic=0;labelBackgroundColor=none;strokeWidth=1;fontFamily=Verdana;fontSize=10;align=center;" parent="1" vertex="1"><mxGeometry x="90" y="173" width="210" height="28" as="geometry"/></mxCell><mxCell id="tXU4QVJW2cZJAh9cHZi9-34" value="Participant" style="swimlane;html=1;fontStyle=0;childLayout=stackLayout;horizontal=1;startSize=110;fillColor=none;horizontalStack=0;resizeParent=1;resizeLast=0;collapsible=1;marginBottom=0;swimlaneFillColor=#ffffff;rounded=0;shadow=0;comic=0;labelBackgroundColor=none;strokeWidth=1;fontFamily=Verdana;fontSize=10;align=center;" parent="1" vertex="1"><mxGeometry x="410" y="290" width="70" height="28" as="geometry"/></mxCell></root></mxGraphModel></diagram></mxfile>